<svg width="257" height="67" viewBox="0 0 257 67" fill="none" xmlns="http://www.w3.org/2000/svg">
<path d="M1 0.999999C1 0.447714 1.44772 0 2 0H10C10.5523 0 11 0.447715 11 1V10.5C11 10.7761 10.7761 11 10.5 11H14C14.5523 11 15 11.4477 15 12V19C15 19.5523 15.4477 20 16 20H17C17.5523 20 18 19.5523 18 19V8C18 7.44772 18.4477 7 19 7H29C29.5523 7 30 7.44772 30 8V25.5C30 26.0523 30.4477 26.5 31 26.5H33C33.5523 26.5 34 26.0523 34 25.5V16C34 15.4477 34.4477 15 35 15H37.5C38.0523 15 38.5 15.4477 38.5 16V25.5C38.5 26.0523 38.9477 26.5 39.5 26.5H40C40.5523 26.5 41 26.0523 41 25.5V11C41 10.4477 41.4477 10 42 10H49C49.5523 10 50 10.4477 50 11V49C50 49.5523 49.5523 50 49 50H2C1.44771 50 1 49.5523 1 49V0.999999Z" fill="#54A3FF"/>
<path d="M1 49.5C1 44.8056 4.80558 41 9.5 41H41.5C46.1944 41 50 44.8056 50 49.5C50 54.1944 46.1944 58 41.5 58H29.7112C28.6893 58 27.782 58.6539 27.4589 59.6234L27.3974 59.8078C26.6749 61.9753 23.5824 61.8967 22.9709 59.6953C22.6926 58.6934 21.7804 58 20.7405 58H9.5C4.80558 58 1 54.1944 1 49.5Z" fill="#54A3FF"/>
<path d="M46 10H49C49.5523 10 50 10.4477 50 11V32H46V10Z" fill="#3D79BF"/>
<path d="M28 7H29C29.5523 7 30 7.44772 30 8V32H28V7Z" fill="#3D79BF"/>
<path d="M37 15H38C38.5523 15 39 15.4477 39 16V32H37V15Z" fill="#3D79BF"/>
<path d="M13 11H14C14.5523 11 15 11.4477 15 12V32H13V11Z" fill="#3D79BF"/>
<path d="M9 0H10C10.5523 0 11 0.447715 11 1V11H9V0Z" fill="#3D79BF"/>
<rect x="19" y="8" width="3" height="3" rx="1" fill="#E7F2FF"/>
<rect x="24" y="8" width="3" height="3" rx="1" fill="#E7F2FF"/>
<rect x="19" y="12" width="3" height="3" rx="1" fill="#E7F2FF"/>
<rect x="24" y="12" width="3" height="3" rx="1" fill="#E7F2FF"/>
<rect x="19" y="16" width="3" height="3" rx="1" fill="#E7F2FF"/>
<rect x="24" y="16" width="3" height="3" rx="1" fill="#E7F2FF"/>
<rect x="19" y="20" width="3" height="3" rx="1" fill="#E7F2FF"/>
<rect x="24" y="20" width="3" height="3" rx="1" fill="#E7F2FF"/>
<rect x="19" y="24" width="3" height="3" rx="1" fill="#E7F2FF"/>
<rect x="24" y="24" width="3" height="3" rx="1" fill="#E7F2FF"/>
<rect x="19" y="28" width="3" height="3" rx="1" fill="#E7F2FF"/>
<rect x="24" y="28" width="3" height="3" rx="1" fill="#E7F2FF"/>
<rect x="19" y="28" width="3" height="3" rx="1" fill="#E7F2FF"/>
<rect x="24" y="28" width="3" height="3" rx="1" fill="#E7F2FF"/>
<rect x="2" y="12" width="4" height="5" rx="1" fill="#E7F2FF"/>
<rect x="2" y="1" width="2" height="1" rx="0.5" fill="#E7F2FF"/>
<rect x="6" y="1" width="2" height="1" rx="0.5" fill="#C4C4C4"/>
<rect x="6" y="1" width="2" height="1" rx="0.5" fill="#E7F2FF"/>
<rect x="2" y="3" width="2" height="1" rx="0.5" fill="#E7F2FF"/>
<rect x="6" y="3" width="2" height="1" rx="0.5" fill="#E7F2FF"/>
<rect x="2" y="5" width="2" height="1" rx="0.5" fill="#E7F2FF"/>
<rect x="6" y="5" width="2" height="1" rx="0.5" fill="#E7F2FF"/>
<rect x="43" y="11" width="2" height="1" rx="0.5" fill="#E7F2FF"/>
<rect x="43" y="13" width="2" height="1" rx="0.5" fill="#E7F2FF"/>
<rect x="43" y="15" width="2" height="1" rx="0.5" fill="#E7F2FF"/>
<rect x="43" y="17" width="2" height="1" rx="0.5" fill="#E7F2FF"/>
<rect x="43" y="19" width="2" height="1" rx="0.5" fill="#E7F2FF"/>
<rect x="43" y="21" width="2" height="1" rx="0.5" fill="#E7F2FF"/>
<rect x="43" y="23" width="2" height="1" rx="0.5" fill="#E7F2FF"/>
<rect x="35" y="16" width="1" height="1" rx="0.5" fill="#E7F2FF"/>
<rect x="35" y="18" width="1" height="1" rx="0.5" fill="#E7F2FF"/>
<rect x="35" y="20" width="1" height="1" rx="0.5" fill="#E7F2FF"/>
<rect x="35" y="22" width="1" height="1" rx="0.5" fill="#E7F2FF"/>
<rect x="35" y="24" width="1" height="1" rx="0.5" fill="#E7F2FF"/>
<rect x="35" y="26" width="1" height="1" rx="0.5" fill="#E7F2FF"/>
<rect x="2" y="7" width="2" height="1" rx="0.5" fill="#E7F2FF"/>
<rect x="2" y="9" width="2" height="1" rx="0.5" fill="#E7F2FF"/>
<rect x="6" y="9" width="2" height="1" rx="0.5" fill="#E7F2FF"/>
<rect x="6" y="7" width="2" height="1" rx="0.5" fill="#E7F2FF"/>
<rect x="8" y="12" width="4" height="5" rx="1" fill="#E7F2FF"/>
<path d="M5.5 53.5H6.5L6.25 57H5.75L5.5 53.5Z" fill="#21548F"/>
<circle cx="5.25" cy="51.25" r="0.75" fill="#386DAA"/>
<circle cx="6.5" cy="51.5" r="1" fill="#386DAA"/>
<circle cx="5" cy="52" r="1" fill="#386DAA"/>
<circle cx="7" cy="52" r="1" fill="#386DAA"/>
<circle cx="6" cy="52.5" r="1" fill="#386DAA"/>
<circle cx="7" cy="52.5" r="1" fill="#386DAA"/>
<circle cx="5" cy="52.5" r="1" fill="#386DAA"/>
<circle cx="5.5" cy="53" r="1" fill="#386DAA"/>
<circle cx="6.5" cy="53" r="1" fill="#386DAA"/>
<circle cx="6" cy="53" r="1" fill="#386DAA"/>
<circle cx="6" cy="51" r="1" fill="#386DAA"/>
<path d="M14.25 51.75H15.75L15.375 57H14.625L14.25 51.75Z" fill="#21548F"/>
<circle cx="13.875" cy="48.375" r="1.125" fill="#386DAA"/>
<circle cx="15.75" cy="48.75" r="1.5" fill="#386DAA"/>
<circle cx="13.5" cy="49.5" r="1.5" fill="#386DAA"/>
<circle cx="16.5" cy="49.5" r="1.5" fill="#386DAA"/>
<circle cx="15" cy="50.25" r="1.5" fill="#386DAA"/>
<circle cx="16.5" cy="50.25" r="1.5" fill="#386DAA"/>
<circle cx="13.5" cy="50.25" r="1.5" fill="#386DAA"/>
<circle cx="14.25" cy="51" r="1.5" fill="#386DAA"/>
<circle cx="15.75" cy="51" r="1.5" fill="#386DAA"/>
<circle cx="15" cy="51" r="1.5" fill="#386DAA"/>
<circle cx="15" cy="48" r="1.5" fill="#386DAA"/>
<path d="M16.625 50.125H18.375L17.9375 56.25H17.0625L16.625 50.125Z" fill="#21548F"/>
<circle cx="16.1875" cy="46.1875" r="1.3125" fill="#386DAA"/>
<circle cx="18.375" cy="46.625" r="1.75" fill="#386DAA"/>
<circle cx="15.75" cy="47.5" r="1.75" fill="#386DAA"/>
<circle cx="19.25" cy="47.5" r="1.75" fill="#386DAA"/>
<circle cx="17.5" cy="48.375" r="1.75" fill="#386DAA"/>
<circle cx="19.25" cy="48.375" r="1.75" fill="#386DAA"/>
<circle cx="15.75" cy="48.375" r="1.75" fill="#386DAA"/>
<circle cx="16.625" cy="49.25" r="1.75" fill="#386DAA"/>
<circle cx="18.375" cy="49.25" r="1.75" fill="#386DAA"/>
<circle cx="17.5" cy="49.25" r="1.75" fill="#386DAA"/>
<circle cx="17.5" cy="45.75" r="1.75" fill="#386DAA"/>
<path d="M25.75 47.75H28.25L27.625 56.5H26.375L25.75 47.75Z" fill="#21548F"/>
<circle cx="25.125" cy="42.125" r="1.875" fill="#386DAA"/>
<circle cx="28.25" cy="42.75" r="2.5" fill="#386DAA"/>
<circle cx="24.5" cy="44" r="2.5" fill="#386DAA"/>
<circle cx="29.5" cy="44" r="2.5" fill="#386DAA"/>
<circle cx="27" cy="45.25" r="2.5" fill="#386DAA"/>
<circle cx="29.5" cy="45.25" r="2.5" fill="#386DAA"/>
<circle cx="24.5" cy="45.25" r="2.5" fill="#386DAA"/>
<circle cx="25.75" cy="46.5" r="2.5" fill="#386DAA"/>
<circle cx="28.25" cy="46.5" r="2.5" fill="#386DAA"/>
<circle cx="27" cy="46.5" r="2.5" fill="#386DAA"/>
<circle cx="27" cy="41.5" r="2.5" fill="#386DAA"/>
<path d="M30.125 46.875H32.875L32.1875 56.5H30.8125L30.125 46.875Z" fill="#21548F"/>
<circle cx="29.4375" cy="40.6875" r="2.0625" fill="#386DAA"/>
<circle cx="32.875" cy="41.375" r="2.75" fill="#386DAA"/>
<circle cx="28.75" cy="42.75" r="2.75" fill="#386DAA"/>
<circle cx="34.25" cy="42.75" r="2.75" fill="#386DAA"/>
<circle cx="31.5" cy="44.125" r="2.75" fill="#386DAA"/>
<circle cx="34.25" cy="44.125" r="2.75" fill="#386DAA"/>
<circle cx="28.75" cy="44.125" r="2.75" fill="#386DAA"/>
<circle cx="30.125" cy="45.5" r="2.75" fill="#386DAA"/>
<circle cx="32.875" cy="45.5" r="2.75" fill="#386DAA"/>
<circle cx="31.5" cy="45.5" r="2.75" fill="#386DAA"/>
<circle cx="31.5" cy="40" r="2.75" fill="#386DAA"/>
<path d="M35.625 49.875H37.375L36.9375 56H36.0625L35.625 49.875Z" fill="#21548F"/>
<circle cx="35.1875" cy="45.9375" r="1.3125" fill="#386DAA"/>
<circle cx="37.375" cy="46.375" r="1.75" fill="#386DAA"/>
<circle cx="34.75" cy="47.25" r="1.75" fill="#386DAA"/>
<circle cx="38.25" cy="47.25" r="1.75" fill="#386DAA"/>
<circle cx="36.5" cy="48.125" r="1.75" fill="#386DAA"/>
<circle cx="38.25" cy="48.125" r="1.75" fill="#386DAA"/>
<circle cx="34.75" cy="48.125" r="1.75" fill="#386DAA"/>
<circle cx="35.625" cy="49" r="1.75" fill="#386DAA"/>
<circle cx="37.375" cy="49" r="1.75" fill="#386DAA"/>
<circle cx="36.5" cy="49" r="1.75" fill="#386DAA"/>
<circle cx="36.5" cy="45.5" r="1.75" fill="#386DAA"/>
<path d="M44 49.5H46L45.5 56.5H44.5L44 49.5Z" fill="#21548F"/>
<circle cx="43.5" cy="45" r="1.5" fill="#386DAA"/>
<circle cx="46" cy="45.5" r="2" fill="#386DAA"/>
<circle cx="43" cy="46.5" r="2" fill="#386DAA"/>
<circle cx="47" cy="46.5" r="2" fill="#386DAA"/>
<circle cx="45" cy="47.5" r="2" fill="#386DAA"/>
<circle cx="47" cy="47.5" r="2" fill="#386DAA"/>
<circle cx="43" cy="47.5" r="2" fill="#386DAA"/>
<circle cx="44" cy="48.5" r="2" fill="#386DAA"/>
<circle cx="46" cy="48.5" r="2" fill="#386DAA"/>
<circle cx="45" cy="48.5" r="2" fill="#386DAA"/>
<circle cx="45" cy="44.5" r="2" fill="#386DAA"/>
<rect x="2" y="19" width="4" height="5" rx="1" fill="#E7F2FF"/>
<rect x="8" y="19" width="4" height="5" rx="1" fill="#E7F2FF"/>
<rect x="2" y="26" width="4" height="5" rx="1" fill="#E7F2FF"/>
<line x1="9.5" y1="56.2097" x2="9.5" y2="44.2097" stroke="#3D79BF" stroke-linecap="round"/>
<path d="M9.5 44.2097L12.391 43" stroke="#3D79BF" stroke-linecap="round"/>
<path d="M10.5 44.4115C10.5 44.2896 10.5742 44.18 10.6874 44.1347L11.8997 43.6498C12.3342 43.476 12.7732 43.89 12.6253 44.3339C12.5505 44.5583 12.3404 44.7097 12.1039 44.7097H10.7981C10.6335 44.7097 10.5 44.5762 10.5 44.4115Z" fill="#E7F2FF"/>
<line x1="23.0738" y1="56.2097" x2="23.0738" y2="44.2097" stroke="#3D79BF" stroke-linecap="round"/>
<path d="M23.0738 44.2097L25.9648 43" stroke="#3D79BF" stroke-linecap="round"/>
<path d="M24.0738 44.4115C24.0738 44.2896 24.148 44.18 24.2612 44.1347L25.4735 43.6498C25.908 43.476 26.347 43.89 26.1991 44.3339C26.1243 44.5583 25.9142 44.7097 25.6777 44.7097H24.3719C24.2073 44.7097 24.0738 44.5762 24.0738 44.4115Z" fill="#E7F2FF"/>
<line x1="37.0738" y1="56.2097" x2="37.0738" y2="44.2097" stroke="#3D79BF" stroke-linecap="round"/>
<path d="M37.0738 44.2097L39.9648 43" stroke="#3D79BF" stroke-linecap="round"/>
<path d="M38.0738 44.4115C38.0738 44.2896 38.148 44.18 38.2612 44.1347L39.4735 43.6498C39.908 43.476 40.347 43.89 40.1991 44.3339C40.1243 44.5583 39.9142 44.7097 39.6777 44.7097H38.3719C38.2073 44.7097 38.0738 44.5762 38.0738 44.4115Z" fill="#E7F2FF"/>
<rect x="8" y="26" width="4" height="5" rx="1" fill="#E7F2FF"/>
<path d="M1 49C1 49 1 53.5 4 56C7 58.5 17.5 58 20 58C22.5 58 23 61.5 25 61.5C27 61.5 27.5 58 30 58C32.5 58 44 58.5 47 56C50 53.5 50 49 50 49" stroke="#434343" stroke-linecap="round"/>
<path d="M4.5 56H47L41 58H29L25 61.5L21 58H9L4.5 56Z" fill="#434343"/>
<rect x="9" y="56" width="2" height="1" rx="0.5" fill="#EEEEEE"/>
<rect x="13" y="56" width="2" height="1" rx="0.5" fill="#EEEEEE"/>
<rect x="17" y="56" width="2" height="1" rx="0.5" fill="#EEEEEE"/>
<rect x="21" y="56" width="2" height="1" rx="0.5" fill="#EEEEEE"/>
<rect x="25" y="56" width="2" height="1" rx="0.5" fill="#EEEEEE"/>
<rect x="29" y="56" width="2" height="1" rx="0.5" fill="#EEEEEE"/>
<rect x="33" y="56" width="2" height="1" rx="0.5" fill="#EEEEEE"/>
<rect x="37" y="56" width="2" height="1" rx="0.5" fill="#EEEEEE"/>
<rect x="41" y="56" width="2" height="1" rx="0.5" fill="#EEEEEE"/>
<path d="M70.66 16H73.9V27.36H80.92V30H70.66V16ZM82.5103 19.24H85.6303V30H82.5103V19.24ZM84.0703 17.74C83.497 17.74 83.0303 17.5733 82.6703 17.24C82.3103 16.9067 82.1303 16.4933 82.1303 16C82.1303 15.5067 82.3103 15.0933 82.6703 14.76C83.0303 14.4267 83.497 14.26 84.0703 14.26C84.6436 14.26 85.1103 14.42 85.4703 14.74C85.8303 15.06 86.0103 15.46 86.0103 15.94C86.0103 16.46 85.8303 16.8933 85.4703 17.24C85.1103 17.5733 84.6436 17.74 84.0703 17.74ZM91.9459 19.48H94.7059V21.88H92.0259V30H88.9059V21.88H87.2459V19.48H88.9059V19C88.9059 17.7733 89.2659 16.8 89.9859 16.08C90.7193 15.36 91.7459 15 93.0659 15C93.5326 15 93.9726 15.0533 94.3859 15.16C94.8126 15.2533 95.1659 15.3933 95.4459 15.58L94.6259 17.84C94.2659 17.5867 93.8459 17.46 93.3659 17.46C92.4193 17.46 91.9459 17.98 91.9459 19.02V19.48ZM106.664 24.66C106.664 24.7 106.644 24.98 106.604 25.5H98.4636C98.6103 26.1667 98.9569 26.6933 99.5036 27.08C100.05 27.4667 100.73 27.66 101.544 27.66C102.104 27.66 102.597 27.58 103.024 27.42C103.464 27.2467 103.87 26.98 104.244 26.62L105.904 28.42C104.89 29.58 103.41 30.16 101.464 30.16C100.25 30.16 99.1769 29.9267 98.2436 29.46C97.3103 28.98 96.5903 28.32 96.0836 27.48C95.5769 26.64 95.3236 25.6867 95.3236 24.62C95.3236 23.5667 95.5703 22.62 96.0636 21.78C96.5703 20.9267 97.2569 20.2667 98.1236 19.8C99.0036 19.32 99.9836 19.08 101.064 19.08C102.117 19.08 103.07 19.3067 103.924 19.76C104.777 20.2133 105.444 20.8667 105.924 21.72C106.417 22.56 106.664 23.54 106.664 24.66ZM101.084 21.44C100.377 21.44 99.7836 21.64 99.3036 22.04C98.8236 22.44 98.5303 22.9867 98.4236 23.68H103.724C103.617 23 103.324 22.46 102.844 22.06C102.364 21.6467 101.777 21.44 101.084 21.44ZM121.801 16V30H118.581V18.64H112.261V30H109.041V16H121.801ZM135.491 24.66C135.491 24.7 135.471 24.98 135.431 25.5H127.291C127.438 26.1667 127.785 26.6933 128.331 27.08C128.878 27.4667 129.558 27.66 130.371 27.66C130.931 27.66 131.425 27.58 131.851 27.42C132.291 27.2467 132.698 26.98 133.071 26.62L134.731 28.42C133.718 29.58 132.238 30.16 130.291 30.16C129.078 30.16 128.005 29.9267 127.071 29.46C126.138 28.98 125.418 28.32 124.911 27.48C124.405 26.64 124.151 25.6867 124.151 24.62C124.151 23.5667 124.398 22.62 124.891 21.78C125.398 20.9267 126.085 20.2667 126.951 19.8C127.831 19.32 128.811 19.08 129.891 19.08C130.945 19.08 131.898 19.3067 132.751 19.76C133.605 20.2133 134.271 20.8667 134.751 21.72C135.245 22.56 135.491 23.54 135.491 24.66ZM129.911 21.44C129.205 21.44 128.611 21.64 128.131 22.04C127.651 22.44 127.358 22.9867 127.251 23.68H132.551C132.445 23 132.151 22.46 131.671 22.06C131.191 21.6467 130.605 21.44 129.911 21.44ZM137.883 19.24H140.983V23.44H145.663V19.24H148.783V30H145.663V25.98H140.983V30H137.883V19.24ZM158.652 24.4C159.292 24.6 159.785 24.9067 160.132 25.32C160.492 25.7333 160.672 26.2267 160.672 26.8C160.672 27.48 160.439 28.08 159.972 28.6C159.505 29.1067 158.865 29.5 158.052 29.78C157.239 30.06 156.319 30.2 155.292 30.2C154.452 30.2 153.625 30.1133 152.812 29.94C151.999 29.7667 151.245 29.5067 150.552 29.16L151.392 26.98C152.525 27.5267 153.779 27.8 155.152 27.8C155.885 27.8 156.459 27.6933 156.872 27.48C157.299 27.2533 157.512 26.94 157.512 26.54C157.512 26.1933 157.365 25.9333 157.072 25.76C156.779 25.5733 156.352 25.48 155.792 25.48H153.592V23.54H155.512C156.059 23.54 156.479 23.4533 156.772 23.28C157.065 23.1067 157.212 22.8533 157.212 22.52C157.212 22.1733 157.025 21.9067 156.652 21.72C156.292 21.5333 155.772 21.44 155.092 21.44C154.052 21.44 152.919 21.6867 151.692 22.18L150.932 20.02C152.425 19.3667 153.879 19.04 155.292 19.04C156.265 19.04 157.132 19.16 157.892 19.4C158.665 19.64 159.272 19.9933 159.712 20.46C160.152 20.9133 160.372 21.4467 160.372 22.06C160.372 22.5667 160.219 23.0267 159.912 23.44C159.605 23.84 159.185 24.16 158.652 24.4ZM167.121 19.08C168.788 19.08 170.068 19.48 170.961 20.28C171.855 21.0667 172.301 22.26 172.301 23.86V30H169.381V28.66C168.795 29.66 167.701 30.16 166.101 30.16C165.275 30.16 164.555 30.02 163.941 29.74C163.341 29.46 162.881 29.0733 162.561 28.58C162.241 28.0867 162.081 27.5267 162.081 26.9C162.081 25.9 162.455 25.1133 163.201 24.54C163.961 23.9667 165.128 23.68 166.701 23.68H169.181C169.181 23 168.975 22.48 168.561 22.12C168.148 21.7467 167.528 21.56 166.701 21.56C166.128 21.56 165.561 21.6533 165.001 21.84C164.455 22.0133 163.988 22.2533 163.601 22.56L162.481 20.38C163.068 19.9667 163.768 19.6467 164.581 19.42C165.408 19.1933 166.255 19.08 167.121 19.08ZM166.881 28.06C167.415 28.06 167.888 27.94 168.301 27.7C168.715 27.4467 169.008 27.08 169.181 26.6V25.5H167.041C165.761 25.5 165.121 25.92 165.121 26.76C165.121 27.16 165.275 27.48 165.581 27.72C165.901 27.9467 166.335 28.06 166.881 28.06Z" fill="#54A3FF"/>
<path d="M75.33 48.12C74.28 48.12 73.33 47.89 72.48 47.43C71.64 46.96 70.98 46.32 70.5 45.51C70.02 44.69 69.78 43.77 69.78 42.75C69.78 41.73 70.02 40.815 70.5 40.005C70.98 39.185 71.645 38.545 72.495 38.085C73.345 37.615 74.295 37.38 75.345 37.38C76.165 37.38 76.915 37.52 77.595 37.8C78.275 38.07 78.855 38.475 79.335 39.015L78.36 39.96C77.57 39.13 76.585 38.715 75.405 38.715C74.625 38.715 73.92 38.89 73.29 39.24C72.66 39.59 72.165 40.075 71.805 40.695C71.455 41.305 71.28 41.99 71.28 42.75C71.28 43.51 71.455 44.2 71.805 44.82C72.165 45.43 72.66 45.91 73.29 46.26C73.92 46.61 74.625 46.785 75.405 46.785C76.575 46.785 77.56 46.365 78.36 45.525L79.335 46.47C78.855 47.01 78.27 47.42 77.58 47.7C76.9 47.98 76.15 48.12 75.33 48.12ZM88.895 46.74V49.845H87.545V48H80.9V49.845H79.535V46.74H79.955C80.465 46.71 80.815 46.35 81.005 45.66C81.195 44.97 81.325 43.995 81.395 42.735L81.515 40.05H87.68V46.74H88.895ZM82.715 42.84C82.675 43.84 82.59 44.67 82.46 45.33C82.34 45.98 82.115 46.45 81.785 46.74H86.24V41.31H82.79L82.715 42.84ZM97.956 44.07C97.956 44.18 97.946 44.325 97.926 44.505H91.476C91.566 45.205 91.871 45.77 92.391 46.2C92.921 46.62 93.576 46.83 94.356 46.83C95.306 46.83 96.071 46.51 96.651 45.87L97.446 46.8C97.086 47.22 96.636 47.54 96.096 47.76C95.566 47.98 94.971 48.09 94.311 48.09C93.471 48.09 92.726 47.92 92.076 47.58C91.426 47.23 90.921 46.745 90.561 46.125C90.211 45.505 90.036 44.805 90.036 44.025C90.036 43.255 90.206 42.56 90.546 41.94C90.896 41.32 91.371 40.84 91.971 40.5C92.581 40.15 93.266 39.975 94.026 39.975C94.786 39.975 95.461 40.15 96.051 40.5C96.651 40.84 97.116 41.32 97.446 41.94C97.786 42.56 97.956 43.27 97.956 44.07ZM94.026 41.19C93.336 41.19 92.756 41.4 92.286 41.82C91.826 42.24 91.556 42.79 91.476 43.47H96.576C96.496 42.8 96.221 42.255 95.751 41.835C95.291 41.405 94.716 41.19 94.026 41.19ZM106.883 40.05V48H105.443V41.31H102.023L101.933 43.08C101.883 44.15 101.788 45.045 101.648 45.765C101.508 46.475 101.278 47.045 100.958 47.475C100.638 47.905 100.193 48.12 99.6231 48.12C99.3631 48.12 99.0681 48.075 98.7381 47.985L98.8281 46.77C98.9581 46.8 99.0781 46.815 99.1881 46.815C99.5881 46.815 99.8881 46.64 100.088 46.29C100.288 45.94 100.418 45.525 100.478 45.045C100.538 44.565 100.593 43.88 100.643 42.99L100.778 40.05H106.883ZM112.502 39.975C113.602 39.975 114.442 40.245 115.022 40.785C115.612 41.325 115.907 42.13 115.907 43.2V48H114.542V46.95C114.302 47.32 113.957 47.605 113.507 47.805C113.067 47.995 112.542 48.09 111.932 48.09C111.042 48.09 110.327 47.875 109.787 47.445C109.257 47.015 108.992 46.45 108.992 45.75C108.992 45.05 109.247 44.49 109.757 44.07C110.267 43.64 111.077 43.425 112.187 43.425H114.467V43.14C114.467 42.52 114.287 42.045 113.927 41.715C113.567 41.385 113.037 41.22 112.337 41.22C111.867 41.22 111.407 41.3 110.957 41.46C110.507 41.61 110.127 41.815 109.817 42.075L109.217 40.995C109.627 40.665 110.117 40.415 110.687 40.245C111.257 40.065 111.862 39.975 112.502 39.975ZM112.172 46.98C112.722 46.98 113.197 46.86 113.597 46.62C113.997 46.37 114.287 46.02 114.467 45.57V44.46H112.247C111.027 44.46 110.417 44.87 110.417 45.69C110.417 46.09 110.572 46.405 110.882 46.635C111.192 46.865 111.622 46.98 112.172 46.98ZM125.685 44.07C125.685 44.18 125.675 44.325 125.655 44.505H119.205C119.295 45.205 119.6 45.77 120.12 46.2C120.65 46.62 121.305 46.83 122.085 46.83C123.035 46.83 123.8 46.51 124.38 45.87L125.175 46.8C124.815 47.22 124.365 47.54 123.825 47.76C123.295 47.98 122.7 48.09 122.04 48.09C121.2 48.09 120.455 47.92 119.805 47.58C119.155 47.23 118.65 46.745 118.29 46.125C117.94 45.505 117.765 44.805 117.765 44.025C117.765 43.255 117.935 42.56 118.275 41.94C118.625 41.32 119.1 40.84 119.7 40.5C120.31 40.15 120.995 39.975 121.755 39.975C122.515 39.975 123.19 40.15 123.78 40.5C124.38 40.84 124.845 41.32 125.175 41.94C125.515 42.56 125.685 43.27 125.685 44.07ZM121.755 41.19C121.065 41.19 120.485 41.4 120.015 41.82C119.555 42.24 119.285 42.79 119.205 43.47H124.305C124.225 42.8 123.95 42.255 123.48 41.835C123.02 41.405 122.445 41.19 121.755 41.19ZM137.084 40.05V48H135.779V42.195L132.809 47.1H132.179L129.239 42.18V48H127.919V40.05H129.404L132.524 45.42L135.734 40.05H137.084ZM150.741 40.05V48H149.301V41.31H145.881L145.791 43.08C145.741 44.15 145.646 45.045 145.506 45.765C145.366 46.475 145.136 47.045 144.816 47.475C144.496 47.905 144.051 48.12 143.481 48.12C143.221 48.12 142.926 48.075 142.596 47.985L142.686 46.77C142.816 46.8 142.936 46.815 143.046 46.815C143.446 46.815 143.746 46.64 143.946 46.29C144.146 45.94 144.276 45.525 144.336 45.045C144.396 44.565 144.451 43.88 144.501 42.99L144.636 40.05H150.741ZM160.62 40.05L156.765 48.795C156.425 49.605 156.025 50.175 155.565 50.505C155.115 50.835 154.57 51 153.93 51C153.54 51 153.16 50.935 152.79 50.805C152.43 50.685 152.13 50.505 151.89 50.265L152.505 49.185C152.915 49.575 153.39 49.77 153.93 49.77C154.28 49.77 154.57 49.675 154.8 49.485C155.04 49.305 155.255 48.99 155.445 48.54L155.7 47.985L152.19 40.05H153.69L156.465 46.41L159.21 40.05H160.62ZM168.439 40.05V48H166.999V44.79C166.139 45.19 165.284 45.39 164.434 45.39C163.444 45.39 162.679 45.16 162.139 44.7C161.599 44.24 161.329 43.55 161.329 42.63V40.05H162.769V42.54C162.769 43.09 162.939 43.505 163.279 43.785C163.629 44.065 164.114 44.205 164.734 44.205C165.434 44.205 166.189 44.03 166.999 43.68V40.05H168.439ZM182.56 40.05V48H171.235V40.05H172.675V46.74H176.185V40.05H177.625V46.74H181.12V40.05H182.56ZM192.541 44.07C192.541 44.18 192.531 44.325 192.511 44.505H186.061C186.151 45.205 186.456 45.77 186.976 46.2C187.506 46.62 188.161 46.83 188.941 46.83C189.891 46.83 190.656 46.51 191.236 45.87L192.031 46.8C191.671 47.22 191.221 47.54 190.681 47.76C190.151 47.98 189.556 48.09 188.896 48.09C188.056 48.09 187.311 47.92 186.661 47.58C186.011 47.23 185.506 46.745 185.146 46.125C184.796 45.505 184.621 44.805 184.621 44.025C184.621 43.255 184.791 42.56 185.131 41.94C185.481 41.32 185.956 40.84 186.556 40.5C187.166 40.15 187.851 39.975 188.611 39.975C189.371 39.975 190.046 40.15 190.636 40.5C191.236 40.84 191.701 41.32 192.031 41.94C192.371 42.56 192.541 43.27 192.541 44.07ZM188.611 41.19C187.921 41.19 187.341 41.4 186.871 41.82C186.411 42.24 186.141 42.79 186.061 43.47H191.161C191.081 42.8 190.806 42.255 190.336 41.835C189.876 41.405 189.301 41.19 188.611 41.19ZM204.218 43.875C205.248 44.135 205.763 44.78 205.763 45.81C205.763 46.51 205.498 47.05 204.968 47.43C204.448 47.81 203.668 48 202.628 48H198.803V40.05H202.493C203.433 40.05 204.168 40.23 204.698 40.59C205.228 40.94 205.493 41.44 205.493 42.09C205.493 42.51 205.378 42.875 205.148 43.185C204.928 43.485 204.618 43.715 204.218 43.875ZM200.213 43.47H202.373C202.923 43.47 203.338 43.37 203.618 43.17C203.908 42.97 204.053 42.68 204.053 42.3C204.053 41.54 203.493 41.16 202.373 41.16H200.213V43.47ZM202.523 46.89C203.123 46.89 203.573 46.795 203.873 46.605C204.173 46.415 204.323 46.12 204.323 45.72C204.323 45.31 204.183 45.005 203.903 44.805C203.633 44.605 203.203 44.505 202.613 44.505H200.213V46.89H202.523ZM217.182 40.05V48H215.877V42.195L212.907 47.1H212.277L209.337 42.18V48H208.017V40.05H209.502L212.622 45.42L215.832 40.05H217.182ZM227.17 44.07C227.17 44.18 227.16 44.325 227.14 44.505H220.69C220.78 45.205 221.085 45.77 221.605 46.2C222.135 46.62 222.79 46.83 223.57 46.83C224.52 46.83 225.285 46.51 225.865 45.87L226.66 46.8C226.3 47.22 225.85 47.54 225.31 47.76C224.78 47.98 224.185 48.09 223.525 48.09C222.685 48.09 221.94 47.92 221.29 47.58C220.64 47.23 220.135 46.745 219.775 46.125C219.425 45.505 219.25 44.805 219.25 44.025C219.25 43.255 219.42 42.56 219.76 41.94C220.11 41.32 220.585 40.84 221.185 40.5C221.795 40.15 222.48 39.975 223.24 39.975C224 39.975 224.675 40.15 225.265 40.5C225.865 40.84 226.33 41.32 226.66 41.94C227 42.56 227.17 43.27 227.17 44.07ZM223.24 41.19C222.55 41.19 221.97 41.4 221.5 41.82C221.04 42.24 220.77 42.79 220.69 43.47H225.79C225.71 42.8 225.435 42.255 224.965 41.835C224.505 41.405 223.93 41.19 223.24 41.19ZM232.869 48.09C232.059 48.09 231.334 47.915 230.694 47.565C230.064 47.215 229.569 46.735 229.209 46.125C228.849 45.505 228.669 44.805 228.669 44.025C228.669 43.245 228.849 42.55 229.209 41.94C229.569 41.32 230.064 40.84 230.694 40.5C231.334 40.15 232.059 39.975 232.869 39.975C233.589 39.975 234.229 40.12 234.789 40.41C235.359 40.7 235.799 41.12 236.109 41.67L235.014 42.375C234.764 41.995 234.454 41.71 234.084 41.52C233.714 41.33 233.304 41.235 232.854 41.235C232.334 41.235 231.864 41.35 231.444 41.58C231.034 41.81 230.709 42.14 230.469 42.57C230.239 42.99 230.124 43.475 230.124 44.025C230.124 44.585 230.239 45.08 230.469 45.51C230.709 45.93 231.034 46.255 231.444 46.485C231.864 46.715 232.334 46.83 232.854 46.83C233.304 46.83 233.714 46.735 234.084 46.545C234.454 46.355 234.764 46.07 235.014 45.69L236.109 46.38C235.799 46.93 235.359 47.355 234.789 47.655C234.229 47.945 233.589 48.09 232.869 48.09ZM243.796 41.31H240.886V48H239.446V41.31H236.536V40.05H243.796V41.31ZM252.101 44.07C252.101 44.18 252.091 44.325 252.071 44.505H245.621C245.711 45.205 246.016 45.77 246.536 46.2C247.066 46.62 247.721 46.83 248.501 46.83C249.451 46.83 250.216 46.51 250.796 45.87L251.591 46.8C251.231 47.22 250.781 47.54 250.241 47.76C249.711 47.98 249.116 48.09 248.456 48.09C247.616 48.09 246.871 47.92 246.221 47.58C245.571 47.23 245.066 46.745 244.706 46.125C244.356 45.505 244.181 44.805 244.181 44.025C244.181 43.255 244.351 42.56 244.691 41.94C245.041 41.32 245.516 40.84 246.116 40.5C246.726 40.15 247.411 39.975 248.171 39.975C248.931 39.975 249.606 40.15 250.196 40.5C250.796 40.84 251.261 41.32 251.591 41.94C251.931 42.56 252.101 43.27 252.101 44.07ZM248.171 41.19C247.481 41.19 246.901 41.4 246.431 41.82C245.971 42.24 245.701 42.79 245.621 43.47H250.721C250.641 42.8 250.366 42.255 249.896 41.835C249.436 41.405 248.861 41.19 248.171 41.19ZM254.11 37.5H255.805L255.52 44.685H254.38L254.11 37.5ZM254.965 48.09C254.685 48.09 254.45 48 254.26 47.82C254.07 47.63 253.975 47.4 253.975 47.13C253.975 46.86 254.07 46.635 254.26 46.455C254.45 46.265 254.685 46.17 254.965 46.17C255.245 46.17 255.475 46.265 255.655 46.455C255.835 46.635 255.925 46.86 255.925 47.13C255.925 47.4 255.83 47.63 255.64 47.82C255.46 48 255.235 48.09 254.965 48.09Z" fill="#434343"/>
</svg>
